<svg width="2400" height="1600" viewBox="0 0 2400 1600" fill="none" xmlns="http://www.w3.org/2000/svg">
<rect width="2400" height="1600" fill="#fff"/>
<path d="M1990.53 1094.57L1377.48 1447.79C1362.17 1456.61 1344.8 1461.26 1327.13 1461.26C1309.45 1461.26 1292.09 1456.61 1276.78 1447.79L429.088 959.385C422.906 955.808 417.775 950.673 414.207 944.494C410.64 938.315 408.762 931.308 408.762 924.177C408.762 917.046 410.64 910.039 414.207 903.86C417.775 897.681 422.906 892.546 429.088 888.969L1058.48 524.442C1066.52 519.797 1075.65 517.351 1084.94 517.351C1094.24 517.351 1103.37 519.797 1111.41 524.442L1990.49 1031C1996.07 1034.22 2000.7 1038.85 2003.93 1044.43C2007.15 1050.01 2008.85 1056.33 2008.85 1062.77C2008.86 1069.21 2007.17 1075.53 2003.95 1081.11C2000.74 1086.69 1996.11 1091.33 1990.53 1094.57Z" fill="#EAECF0"/>
<path d="M555.358 1037.98L671.226 977.391L770.226 962.601L835.167 991.722L659.604 1098.06L555.358 1037.98Z" fill="#C8CCD1"/>
<path d="M784.676 1194.05L930.945 1123.32L1019.45 1101.55L1103.4 1127.82L888.923 1254.13L784.676 1194.05Z" fill="#C8CCD1"/>
<path d="M999.568 1316.55L1164.43 1232.55L1266.74 1204.44L1328.37 1246.88L1116.79 1383.53L999.568 1316.55Z" fill="#C8CCD1"/>
<path d="M1227.58 751.95L912.288 881.237L1077.21 964.445L1318.24 806.381L1308.53 773.355L1227.58 751.95Z" fill="#F4AC45"/>
<path d="M1894.2 1093.79L1662.88 1225.89L1573.96 1177.61L1823.92 1053.55L1894.2 1093.79Z" fill="#F4AC45"/>
<path d="M1062.85 1088.92C1060.92 1088.92 1054.84 1088.46 1052.59 1088.46C1045.45 1093.29 1037.13 1096.1 1028.52 1096.59C1018.1 1098.1 1007.48 1095.7 998.739 1089.84L996.945 1105.77C995.932 1118.04 1011.99 1115.6 1018.07 1115.33C1029.91 1114.7 1041.66 1112.9 1053.14 1109.95C1057.74 1108.85 1072.38 1106.51 1073.21 1099.02C1074.04 1091.54 1071.6 1089.97 1062.85 1088.92Z" fill="#CA054D"/>
<path d="M1035.05 1044.96C1035.05 1044.96 1025.85 1088.14 1030.08 1087.95C1034.32 1087.77 1062.85 1088.92 1062.85 1088.92C1060.26 1094.22 1056.37 1098.78 1051.54 1102.18C1046.72 1105.59 1041.11 1107.72 1035.24 1108.39C1014.02 1111.47 998.878 1090.02 998.878 1090.02L1007.3 1036.14" fill="#614335"/>
<path d="M995.149 1024.98L988.843 1059.34C988.843 1059.34 998.738 1069.49 1032.06 1068.29C1065.38 1067.1 1032.06 1007.57 1032.06 1007.57" fill="#C8CCD1"/>
<path d="M975.68 941.885C975.68 941.885 1012.87 912.12 1037.54 908.583C1062.21 905.046 1075.09 931.825 1073.35 949.693C1071.6 967.561 1012.5 977.253 1012.5 977.253" fill="#F4AC45"/>
<path d="M1097.46 1114.64C1095.53 1114.64 1089.46 1114.18 1087.2 1114.18C1080.06 1119.01 1071.74 1121.82 1063.13 1122.31C1052.71 1123.83 1042.09 1121.42 1033.35 1115.56L1031.51 1131.31C1030.5 1143.58 1046.56 1141.14 1052.64 1140.87C1064.47 1140.23 1076.22 1138.43 1087.71 1135.49C1092.31 1134.39 1106.95 1132.05 1107.77 1124.56C1108.6 1117.07 1106.25 1115.65 1097.46 1114.64Z" fill="#CA054D"/>
<path d="M1069.66 1070.68C1069.66 1070.68 1060.46 1113.86 1064.69 1113.68C1068.93 1113.49 1097.46 1114.64 1097.46 1114.64C1094.87 1119.94 1090.98 1124.5 1086.15 1127.91C1081.33 1131.31 1075.72 1133.45 1069.85 1134.12C1048.63 1137.19 1033.49 1115.74 1033.49 1115.74L1041.91 1061.86" fill="#614335"/>
<path d="M978.027 943.262C978.027 943.262 1015.22 913.497 1039.88 909.96C1064.55 906.423 1077.44 933.203 1075.69 951.071C1073.94 968.939 1014.85 978.631 1014.85 978.631" fill="#F4AC45"/>
<path d="M997.864 953.183C1002.47 948.59 1065.8 919.33 1088.03 932.743C1110.26 946.156 1108.88 956.123 1106.07 972.475C1103.26 988.827 1081.77 1076.93 1081.77 1076.93C1065.59 1083.16 1047.83 1084 1031.14 1079.32L1037.35 1013.86L953.266 967.928" fill="white"/>
<path d="M998.37 946.386L1018.3 961.314L1103.4 917.631L1046.51 877.256L966.797 922.362L998.37 946.386Z" fill="black"/>
<path d="M787.898 930.631L782.927 953.597C789.552 952.278 796.286 951.586 803.04 951.53C808.195 952.219 814.777 961.36 808.333 967.561C801.89 973.762 790.936 973.165 779.936 975.737C768.936 978.31 767.233 978.815 760.191 976.84C753.149 974.865 752.091 965.31 752.091 965.31L757.614 925.256" fill="#00A7E2"/>
<path d="M751.539 908.261L745.233 942.619C745.233 942.619 755.129 952.771 788.451 951.576C821.773 950.382 788.451 890.853 788.451 890.853" fill="#C8CCD1"/>
<path d="M708.275 1005.92C734.482 1005.92 755.727 998.039 755.727 988.323C755.727 978.607 734.482 970.73 708.275 970.73C682.068 970.73 660.823 978.607 660.823 988.323C660.823 998.039 682.068 1005.92 708.275 1005.92Z" fill="black"/>
<path d="M700.267 909.639L702.108 980.468H716.284V909.639" fill="black"/>
<path d="M826.699 949.464L821.728 972.43C828.352 971.111 835.086 970.419 841.841 970.363C846.996 971.052 853.577 980.193 847.134 986.394C840.69 992.595 829.736 991.998 818.736 994.57C807.736 997.142 806.033 997.648 798.992 995.672C791.95 993.697 790.891 984.143 790.891 984.143L796.414 944.089" fill="#00A7E2"/>
<path d="M1140.68 447.549L1164.29 404.831L1177.91 382.875L1125.26 357.336L1091.48 426.512L1140.68 447.549Z" fill="#92BFB1"/>
<path d="M1195.63 439.695L1180.63 423.067C1179.41 421.981 1178.31 420.764 1177.36 419.439C1176.56 417.205 1176.26 414.82 1176.49 412.457C1176.22 409.024 1175.55 405.633 1174.51 402.351C1174.22 401.425 1173.61 400.631 1172.8 400.11C1171.98 399.59 1171 399.377 1170.04 399.509C1169.07 399.642 1168.19 400.111 1167.54 400.833C1166.89 401.556 1166.53 402.485 1166.5 403.454C1166.5 405.567 1166.5 407.726 1166.5 409.838L1162.86 406.577C1157.94 415.488 1152.88 424.353 1147.49 433.035C1150.44 433.035 1153.43 433.035 1156.42 433.035C1167.12 439.387 1176.63 447.565 1184.5 457.196C1184.94 457.687 1185.51 458.053 1186.14 458.258C1186.77 458.463 1187.45 458.5 1188.1 458.366C1188.75 458.231 1189.35 457.93 1189.85 457.491C1190.35 457.052 1190.73 456.491 1190.94 455.864C1191.37 455.775 1191.79 455.636 1192.18 455.45C1193.09 454.888 1193.75 453.998 1194.03 452.964C1194.3 451.93 1194.17 450.831 1193.66 449.892C1193.47 449.446 1193.2 449.043 1192.85 448.71C1192.5 448.378 1192.09 448.123 1191.63 447.963C1190.8 446.999 1190.02 446.034 1189.24 445.023L1189.74 445.575C1193.38 449.341 1199.13 443.599 1195.63 439.695Z" fill="#D08B5B"/>
<path d="M1165.03 426.926C1163.38 424.626 1162.32 421.962 1161.94 419.163C1162.09 416.372 1163.16 413.707 1164.98 411.584C1165.67 410.574 1164.06 409.655 1163.37 410.665C1161.38 413.067 1160.23 416.051 1160.1 419.163C1160.49 422.289 1161.64 425.27 1163.46 427.845C1163.6 428.011 1163.8 428.122 1164.01 428.159C1164.23 428.196 1164.45 428.156 1164.63 428.046C1164.82 427.936 1164.96 427.763 1165.04 427.558C1165.11 427.353 1165.1 427.129 1165.03 426.926Z" fill="black"/>
<path d="M1212.75 169.331V494.769C1212.76 499.901 1214.13 504.94 1216.72 509.371C1219.32 513.801 1223.05 517.465 1227.53 519.986L1758.2 819.471C1762.61 821.969 1767.61 823.267 1772.69 823.236C1777.77 823.205 1782.75 821.846 1787.13 819.294C1791.52 816.742 1795.16 813.087 1797.69 808.694C1800.22 804.3 1801.55 799.321 1801.55 794.254V485.49C1801.54 480.486 1800.22 475.572 1797.74 471.225C1795.25 466.878 1791.68 463.248 1787.38 460.686L1256.66 144.435C1252.25 141.814 1247.23 140.405 1242.1 140.352C1236.97 140.299 1231.91 141.603 1227.45 144.133C1222.99 146.663 1219.28 150.328 1216.7 154.754C1214.11 159.18 1212.75 164.21 1212.75 169.331Z" fill="#C8CCD1"/>
<path d="M1429.99 417.05L1423.09 418.841C1424.67 417.652 1425.76 415.916 1426.13 413.973C1426.27 413.313 1426.23 412.626 1426 411.991C1425.77 411.356 1425.36 410.8 1424.82 410.39C1424.29 409.979 1423.64 409.731 1422.97 409.674C1422.29 409.617 1421.62 409.754 1421.02 410.068C1414.88 413.13 1408.65 416.193 1402.33 419.255L1402.7 417.877C1403.72 414.927 1404.09 411.796 1403.8 408.69C1402.47 403.454 1397.73 406.348 1395.8 410.482C1393.17 415.994 1392.62 421.919 1387.65 426.283C1384.74 428.25 1381.45 429.581 1377.98 430.187C1374.49 431.198 1370.99 432.116 1367.49 433.035C1366.78 433.258 1366.16 433.701 1365.72 434.3C1365.28 434.899 1365.04 435.622 1365.04 436.365C1365.04 437.108 1365.28 437.831 1365.72 438.43C1366.16 439.029 1366.78 439.472 1367.49 439.695C1366.99 440.021 1366.58 440.473 1366.31 441.006C1366.04 441.538 1365.92 442.132 1365.95 442.728C1365.98 443.324 1366.17 443.901 1366.5 444.4C1366.83 444.9 1367.28 445.305 1367.81 445.575C1366.25 448.101 1368.04 452.189 1371.4 450.811C1379.61 447.49 1388.11 444.982 1396.81 443.324C1405.37 442.865 1413.9 442.145 1422.4 441.165C1426.77 440.66 1427 433.862 1422.4 434.229H1421.75L1429.44 432.943C1433.26 432.3 1432.43 425.64 1428.52 426.145H1427.6L1425.07 426.512L1428.7 425.318C1430.96 424.537 1433.03 424.032 1434.18 421.781C1434.44 421.173 1434.53 420.504 1434.42 419.851C1434.32 419.197 1434.03 418.587 1433.59 418.091C1433.15 417.596 1432.58 417.234 1431.94 417.05C1431.31 416.866 1430.63 416.866 1429.99 417.05Z" fill="#D08B5B"/>
<path d="M1402.38 422.929C1402.29 422.772 1402.16 422.647 1401.99 422.576C1401.83 422.506 1401.65 422.494 1401.47 422.542C1401.3 422.591 1401.15 422.697 1401.05 422.842C1400.94 422.988 1400.89 423.165 1400.91 423.343C1401.51 425.526 1401.49 427.835 1400.83 430.004C1400.18 432.174 1398.93 434.116 1397.22 435.607C1396.49 436.25 1397.59 437.352 1398.33 436.709C1400.21 435.006 1401.58 432.819 1402.29 430.388C1403.01 427.957 1403.04 425.376 1402.38 422.929Z" fill="black"/>
<path d="M1423.55 417.693C1417.94 419.163 1412.38 420.878 1406.89 422.838C1405.97 423.159 1406.38 424.675 1407.3 424.307C1412.8 422.378 1418.35 420.663 1423.96 419.163C1424.12 419.079 1424.25 418.944 1424.32 418.78C1424.39 418.616 1424.4 418.433 1424.35 418.261C1424.3 418.089 1424.2 417.939 1424.05 417.835C1423.91 417.732 1423.73 417.682 1423.55 417.693Z" fill="black"/>
<path d="M1427.46 425.594L1409.74 428.304C1408.78 428.304 1409.19 429.957 1410.16 429.774L1427.88 427.063C1428.84 426.926 1428.43 425.41 1427.46 425.594Z" fill="black"/>
<path d="M1424.29 433.448C1419.53 433.755 1414.76 433.969 1409.97 434.091C1408.96 434.091 1408.96 435.653 1409.97 435.653C1414.76 435.653 1419.53 435.439 1424.29 435.01C1425.25 434.918 1425.25 433.402 1424.29 433.448Z" fill="black"/>
<path d="M636.615 378.695V728.983L721.209 683.279V330.328L636.615 378.695Z" fill="#C8CCD1"/>
<path d="M753.749 257.248V607.535L838.343 561.786V208.834L753.749 257.248Z" fill="#C8CCD1"/>
<path d="M1881.45 1036.09C1879.08 1037.26 1876.61 1038.24 1874.09 1039.03C1863.39 1035.41 1851.79 1035.41 1841.09 1039.03C1840.51 1039.2 1840 1039.56 1839.63 1040.04C1839.27 1040.53 1839.08 1041.12 1839.08 1041.72C1839.08 1042.33 1839.27 1042.91 1839.63 1043.4C1840 1043.88 1840.51 1044.24 1841.09 1044.41C1851.77 1047.71 1863.19 1047.85 1873.95 1044.82C1875.19 1045.28 1876.39 1045.79 1877.59 1046.38C1880.44 1047.76 1882.97 1044.18 1881.31 1042.2L1884.31 1040.87C1887.53 1039.45 1884.67 1034.49 1881.45 1036.09Z" fill="black"/>
<path d="M803.684 751.123C799.588 764.903 793.421 779.234 780.672 786.721C766.864 794.668 749.835 792.509 735.061 789.294C732.115 788.651 730.873 793.152 733.818 793.887C749.881 797.378 768.153 799.491 783.065 790.855C796.873 782.771 803.914 767.246 808.379 752.501C808.47 752.193 808.499 751.871 808.464 751.552C808.43 751.233 808.333 750.924 808.18 750.643C808.026 750.361 807.818 750.113 807.568 749.911C807.318 749.71 807.03 749.56 806.722 749.469C806.414 749.379 806.091 749.35 805.771 749.384C805.452 749.418 805.142 749.515 804.86 749.668C804.578 749.822 804.329 750.029 804.127 750.279C803.925 750.528 803.775 750.815 803.684 751.123Z" fill="black"/>
<path d="M799.498 807.483C785.292 810.545 770.963 812.949 756.511 814.694C756.19 814.721 755.878 814.812 755.593 814.962C755.309 815.112 755.057 815.318 754.854 815.567C753.197 810.576 751.786 805.508 750.62 800.363C749.976 797.423 745.465 798.664 746.017 801.603C748.678 813.303 752.629 824.672 757.8 835.502C759.088 838.212 763.093 835.87 761.85 833.16C759.687 828.566 757.8 823.973 756.097 819.38H756.419C771.27 817.634 786.013 815.184 800.649 812.03C803.687 811.295 802.444 806.84 799.498 807.483Z" fill="#202122"/>
<path d="M761.112 840.326C757.317 846.623 752.44 852.205 746.706 856.816C744.358 858.699 747.672 862.006 750.019 860.123C756.048 855.249 761.174 849.356 765.162 842.714C765.479 842.178 765.57 841.538 765.415 840.935C765.259 840.332 764.87 839.816 764.333 839.499C763.796 839.182 763.155 839.091 762.551 839.246C761.947 839.401 761.429 839.79 761.112 840.326Z" fill="#202122"/>
<path d="M1205.67 713.733C1205.67 713.733 1205.21 736.332 1202.54 739.869C1199.87 743.406 1176.12 755.992 1174.92 761.734C1173.73 767.475 1177.82 775.514 1189.14 772.62C1200.47 769.726 1227.71 751.904 1227.71 751.904V702.985" fill="#54595D"/>
<path d="M1296.61 739.456L1299.51 763.984C1299.51 763.984 1289.11 801.787 1293.25 806.38C1297.39 810.974 1312.4 815.935 1318.24 806.38C1324.09 796.826 1315.76 761.504 1315.76 761.504L1315.34 734.908" fill="#54595D"/>
<path d="M1241.98 479.933C1241.98 479.933 1212.52 599.359 1211.24 617.733C1209.95 636.106 1201.11 725.033 1201.11 725.033C1201.11 725.033 1229.09 737.435 1247.96 731.142L1262.69 618.973L1279.21 501.429C1279.21 501.429 1249.02 471.435 1241.98 479.933Z" fill="black"/>
<path d="M1298.5 508.09C1319.3 596.098 1321.51 662.564 1332.33 739.502C1332.33 739.502 1287.27 755.9 1277.33 740.007C1270.61 661.599 1265.18 582.961 1262.65 504.323L1298.5 508.09Z" fill="black"/>
<path d="M1381.12 414.753C1362.2 421.919 1339.69 428.533 1324.28 426.42C1304.89 423.813 1285.84 419.1 1267.48 412.365C1265 411.538 1238.07 401.249 1228.08 410.114C1218.1 418.979 1220.76 447.825 1220.76 447.825L1184.41 416.407C1170.92 421.23 1165.58 435.148 1164.29 448.974L1165.67 450.398C1168.28 453.46 1170.92 456.522 1173.59 459.584C1185.51 472.951 1199.18 488.384 1216.71 494.218C1223.65 496.229 1231.07 495.775 1237.7 492.932C1242.9 491.003 1250.54 484.664 1256.11 486.731C1257.59 487.282 1258.97 488.339 1260.71 488.155C1264.9 487.65 1270.52 480.989 1274.52 478.968C1285.43 473.318 1298.23 472.446 1310.24 471.848C1323.35 471.392 1336.42 469.948 1349.31 467.531C1353.09 466.75 1393.31 456.461 1394.19 458.344C1387.47 444.624 1383.06 429.899 1381.12 414.753Z" fill="#00A7E2"/>
<path d="M1271.25 513.051C1280.57 513.141 1289.82 511.457 1298.5 508.09L1300.34 450.443L1230.7 483.01C1230.7 483.01 1233.33 496.79 1236.27 509.697C1247.64 512.874 1259.49 514.01 1271.25 513.051Z" fill="#00A7E2"/>
<path d="M732.069 825.167C732.069 825.167 769.258 795.402 793.927 791.866C818.596 788.329 831.483 815.108 829.734 832.976C827.986 850.844 768.889 860.536 768.889 860.536" fill="#C8CCD1"/>
<path d="M751.861 835.089C756.464 830.496 819.794 801.236 842.024 814.649C864.254 828.061 862.873 838.029 860.066 854.381C857.258 870.733 835.903 958.788 835.903 958.788C819.728 965.02 801.967 965.858 785.275 961.176L791.489 895.721L707.401 849.788" fill="white"/>
<path d="M705.836 729.81C709.196 732.29 738.054 735.735 743.991 748.964C749.928 762.193 759.179 830.588 759.179 830.588C759.179 830.588 741.874 856.31 711.911 847.17C703.029 844.459 656.958 760.402 655.715 751.674C652.539 728.983 705.836 729.81 705.836 729.81Z" fill="#F4AC45"/>
<path d="M649.04 877.486C647.578 874.028 646.378 870.466 645.45 866.829C638.408 839.269 633.759 735.414 680.475 739.64C731.747 744.233 714.441 872.433 766.403 868.483C818.366 864.533 839.675 878.037 818.412 898.156C776.069 938.394 675.09 939.22 649.04 877.486Z" fill="#A2A9B1"/>
<path d="M716.882 685.76C717.296 688.24 721.485 723.15 711.267 731.004C701.05 738.859 677.669 720.302 677.071 711.069C676.472 701.836 668.648 682.636 678.543 677.813C688.439 672.99 714.075 668.351 716.882 685.76Z" fill="#AE5D29"/>
<path d="M716.881 685.76C716.881 685.76 725.58 679.054 727.099 672.991C728.618 666.927 721.116 662.564 713.798 662.564C706.48 662.564 700.266 664.447 693.961 660.681C690.58 658.764 686.757 657.756 682.869 657.756C678.98 657.756 675.158 658.764 671.777 660.681C665.84 664.723 664.827 674.461 660.823 679.467C656.819 684.474 649.179 685.025 649.363 694.35C649.547 703.674 663.17 704.639 664.229 710.886C665.287 717.133 668.555 726.273 676.978 727.835C685.4 729.397 696.952 729.581 697.919 728.34C698.886 727.1 692.626 706.2 698.425 704.822C704.224 703.444 717.25 700.413 716.881 685.76Z" fill="#54595D"/>
<path d="M835.904 679.742C835.873 675.664 834.37 671.733 831.67 668.672C831.401 668.376 831.071 668.141 830.703 667.983C830.381 664.17 829.323 660.358 826.101 659.026C825.56 658.865 824.984 658.865 824.444 659.026C824.061 658.956 823.668 658.974 823.293 659.077C822.918 659.181 822.571 659.368 822.279 659.624C821.986 659.88 821.756 660.199 821.605 660.557C821.454 660.915 821.386 661.302 821.406 661.69V665.824C821.051 664.894 820.384 664.115 819.519 663.619C818.979 663.313 818.368 663.152 817.747 663.152C817.126 663.152 816.515 663.313 815.975 663.619C815.361 663.71 814.805 664.032 814.42 664.519C814.035 665.005 813.85 665.62 813.904 666.237L814.595 683.738C813.72 680.477 811.833 674.092 807.138 677.445C803.456 680.063 806.126 687.275 806.724 690.674C807.817 697.588 809.448 704.407 811.603 711.068C811.782 711.6 812.119 712.065 812.569 712.4C812.416 713.105 812.232 713.809 812.017 714.513C810.82 719.107 809.578 725.262 806.034 728.293C803.318 730.636 807.277 734.586 809.992 732.244L810.36 731.876C809.44 734.862 814.088 736.929 815.469 734.035L816.021 732.979C816.276 733.239 816.571 733.456 816.896 733.622C816.896 734.219 816.436 734.816 816.251 735.413C815.147 738.858 820.578 740.328 821.636 736.883C821.851 737.308 822.18 737.665 822.586 737.915C822.993 738.165 823.46 738.297 823.938 738.297C824.415 738.297 824.882 738.165 825.289 737.915C825.695 737.665 826.024 737.308 826.239 736.883C826.883 735.505 826.699 740.144 827.251 738.766C828.678 739.363 825.687 734.173 826.607 732.565C830.105 725.951 838.804 719.336 838.574 697.931C838.85 692.511 842.9 682.039 835.904 679.742Z" fill="#AE5D29"/>
<path d="M815.651 666.973C815.651 665.779 813.717 665.779 813.764 666.973C814.101 674.414 814.607 681.84 815.282 689.251C815.282 690.445 817.262 690.445 817.169 689.251C816.525 681.84 816.019 674.414 815.651 666.973Z" fill="black"/>
<path d="M823.015 661.415C823.015 661.166 822.916 660.926 822.739 660.749C822.562 660.573 822.322 660.474 822.072 660.474C821.822 660.474 821.582 660.573 821.405 660.749C821.228 660.926 821.129 661.166 821.129 661.415L821.865 691.364C821.865 691.614 821.964 691.853 822.141 692.03C822.318 692.206 822.558 692.305 822.808 692.305C823.059 692.305 823.299 692.206 823.476 692.03C823.652 691.853 823.752 691.614 823.752 691.364L823.015 661.415Z" fill="black"/>
<path d="M829.413 669.546L828.861 692.512C828.861 692.762 828.961 693.002 829.137 693.178C829.314 693.355 829.554 693.454 829.805 693.454C830.055 693.454 830.295 693.355 830.472 693.178C830.649 693.002 830.748 692.762 830.748 692.512L831.301 669.546C831.301 669.296 831.201 669.056 831.024 668.88C830.847 668.703 830.607 668.604 830.357 668.604C830.107 668.604 829.867 668.703 829.69 668.88C829.513 669.056 829.413 669.296 829.413 669.546Z" fill="black"/>
<path d="M835.211 680.386C834.935 686.02 834.444 691.639 833.738 697.243C833.738 698.437 835.441 698.437 835.625 697.243C836.362 691.639 836.853 686.02 837.098 680.386C837.098 679.145 835.257 679.191 835.211 680.386Z" fill="black"/>
<path d="M732.529 738.858C732.529 738.858 760.927 749.193 768.291 748.55C775.655 747.907 806.676 708.451 806.676 708.451C806.676 708.451 828.169 714.376 835.165 733.484C835.165 733.484 795.123 790.671 777.634 794.116C760.144 797.561 738.789 788.972 738.789 788.972" fill="#F4AC45"/>
<path d="M913.408 897.696C913.408 897.696 912.074 847.675 934.902 846.848C957.73 846.021 987.601 862.419 989.212 888.877C990.822 915.334 995.333 964.85 995.333 974.129C995.333 983.408 978.626 1017.72 978.626 1017.72" fill="#CA054D"/>
<path d="M1282.85 1166.13C1282.85 1167.78 1281.52 1187.95 1283.77 1190.29C1286.03 1192.63 1291.92 1204.07 1299.24 1204.53C1306.55 1204.99 1313.37 1203.57 1314.7 1211.38C1316.04 1219.18 1273.28 1221.85 1273.28 1221.85C1273.28 1221.85 1268.68 1203.93 1266.83 1204.44C1264.99 1204.94 1264.99 1224.19 1264.99 1224.19L1257.03 1225.89L1249.07 1220.61L1252.29 1186.3L1257.49 1157.13" fill="black"/>
<path d="M1314.98 1194.93C1313.92 1207.06 1314.56 1223.32 1325.98 1230.71C1332.24 1234.75 1345.44 1231.03 1347.1 1239.9C1348.53 1247.71 1305.68 1250.6 1305.68 1250.6C1305.68 1250.6 1301.08 1232.73 1299.14 1233.24C1297.21 1233.74 1297.39 1252.99 1297.39 1252.99L1289.43 1254.74L1281.47 1249.5L1284.46 1215.14L1289.48 1185.93" fill="black"/>
<path d="M1296.15 974.359L1301.77 966.872C1302.19 966.161 1302.41 965.349 1302.41 964.522C1302.41 963.695 1302.19 962.884 1301.76 962.174C1301.34 961.463 1300.73 960.88 1300 960.487C1299.27 960.093 1298.45 959.902 1297.62 959.936C1298.78 957.885 1299.66 955.692 1300.25 953.413C1300.38 952.513 1300.21 951.595 1299.78 950.796C1299.34 949.997 1298.66 949.359 1297.83 948.977C1297.01 948.595 1296.08 948.49 1295.19 948.677C1294.3 948.864 1293.49 949.333 1292.88 950.014L1283.68 962.554L1288.28 954.286C1291 949.693 1283.36 946.064 1280.69 950.703L1272.63 964.483V960.441C1272.63 956.766 1271.9 952.081 1267.2 951.851C1266.12 951.75 1265.03 952.036 1264.14 952.658C1263.24 953.281 1262.6 954.199 1262.32 955.25C1261.59 958.27 1261.59 961.418 1262.32 964.437C1263.11 967.79 1265.22 972.384 1263.29 975.645L1253.76 990.435C1253.3 991.017 1253 991.71 1252.89 992.446C1252.79 993.181 1252.88 993.931 1253.16 994.619C1253.44 995.307 1253.9 995.907 1254.49 996.359C1255.08 996.81 1255.79 997.096 1256.52 997.188C1256.59 997.838 1256.8 998.466 1257.15 999.022C1257.5 999.578 1257.96 1000.05 1258.52 1000.4C1259.07 1000.75 1259.7 1000.97 1260.35 1001.04C1261 1001.11 1261.66 1001.04 1262.28 1000.82C1263.13 1001.37 1264.17 1001.59 1265.18 1001.41C1265.72 1002.13 1266.51 1002.64 1267.39 1002.85C1268.27 1003.06 1269.2 1002.96 1270.01 1002.56C1270.27 1003.23 1270.7 1003.82 1271.26 1004.27C1271.81 1004.73 1272.47 1005.03 1273.18 1005.15C1273.89 1005.28 1274.62 1005.22 1275.29 1004.98C1275.97 1004.75 1276.58 1004.34 1277.05 1003.8C1283.82 995.672 1292.79 989.655 1298.96 980.835C1299.26 980.234 1299.43 979.574 1299.45 978.901C1299.47 978.228 1299.34 977.559 1299.07 976.941C1298.81 976.323 1298.41 975.771 1297.9 975.325C1297.4 974.879 1296.8 974.549 1296.15 974.359Z" fill="#D08B5B"/>
<path d="M1204.93 1030.26C1206.45 1034.88 1209.32 1038.95 1213.18 1041.92C1217.03 1044.89 1221.7 1046.64 1226.56 1046.93C1243.68 1047.9 1276.18 1011.84 1276.18 1011.84C1276.18 1011.84 1277.05 979.687 1262.88 974.129C1262.88 974.129 1239.36 994.386 1236.09 994.615C1232.82 994.845 1213.77 976.977 1213.77 976.977" fill="#72777D"/>
<path d="M1303.79 977.299L1308.07 968.985C1308.36 968.216 1308.44 967.383 1308.3 966.573C1308.15 965.764 1307.79 965.008 1307.26 964.384C1306.72 963.76 1306.03 963.291 1305.25 963.026C1304.47 962.76 1303.63 962.709 1302.83 962.876C1303.62 960.653 1304.11 958.337 1304.3 955.986C1304.27 955.079 1303.95 954.205 1303.39 953.493C1302.83 952.781 1302.05 952.269 1301.17 952.032C1300.29 951.795 1299.36 951.846 1298.52 952.178C1297.67 952.509 1296.96 953.104 1296.47 953.873L1289.34 967.653L1292.61 958.696C1294.45 953.598 1286.35 951.439 1284.51 956.445L1278.94 971.603L1278.06 967.653C1277.28 964.024 1275.9 959.569 1271.25 960.12C1270.17 960.213 1269.16 960.684 1268.4 961.448C1267.63 962.213 1267.16 963.223 1267.06 964.3C1266.91 967.462 1267.53 970.614 1268.86 973.487C1270.19 976.656 1273.09 980.836 1271.71 984.373L1264.86 1000.59C1264.51 1001.24 1264.33 1001.97 1264.36 1002.71C1264.38 1003.44 1264.6 1004.16 1265 1004.79C1265.39 1005.41 1265.94 1005.92 1266.59 1006.27C1267.25 1006.61 1267.98 1006.77 1268.72 1006.74C1268.9 1007.37 1269.22 1007.94 1269.66 1008.42C1270.09 1008.91 1270.63 1009.29 1271.23 1009.53C1271.83 1009.78 1272.48 1009.89 1273.13 1009.85C1273.78 1009.81 1274.41 1009.63 1274.98 1009.31C1275.93 1009.68 1276.98 1009.68 1277.93 1009.31C1278.59 1009.94 1279.45 1010.31 1280.35 1010.37C1281.26 1010.43 1282.16 1010.17 1282.9 1009.64C1283.27 1010.25 1283.8 1010.77 1284.42 1011.12C1285.05 1011.48 1285.76 1011.66 1286.49 1011.66C1287.21 1011.66 1287.92 1011.48 1288.55 1011.12C1289.18 1010.77 1289.7 1010.25 1290.08 1009.64C1295.37 1000.45 1303.15 993.008 1307.75 983.362C1307.98 982.702 1308.05 982 1307.96 981.308C1307.88 980.616 1307.63 979.952 1307.25 979.368C1306.87 978.784 1306.36 978.294 1305.76 977.935C1305.16 977.577 1304.49 977.359 1303.79 977.299Z" fill="#EDB98A"/>
<path d="M1244.79 1150.61L1238.48 1184.96C1238.48 1184.96 1248.38 1195.11 1281.7 1193.92C1315.02 1192.73 1281.7 1133.2 1281.7 1133.2" fill="#C8CCD1"/>
<path d="M1201.52 1248.31C1227.73 1248.31 1248.98 1240.43 1248.98 1230.71C1248.98 1221 1227.73 1213.12 1201.52 1213.12C1175.32 1213.12 1154.07 1221 1154.07 1230.71C1154.07 1240.43 1175.32 1248.31 1201.52 1248.31Z" fill="black"/>
<path d="M1193.52 1152.03L1195.36 1222.81H1209.49V1152.03" fill="black"/>
<path d="M1292.75 1049.83C1278.54 1052.89 1264.21 1055.29 1249.76 1057.04C1249.44 1057.07 1249.13 1057.16 1248.84 1057.31C1248.56 1057.46 1248.31 1057.66 1248.1 1057.91C1246.45 1052.92 1245.03 1047.85 1243.87 1042.71C1243.22 1039.77 1238.71 1041.01 1239.27 1043.95C1241.93 1055.65 1245.88 1067.02 1251.05 1077.85C1252.34 1080.56 1256.34 1078.21 1255.1 1075.5C1252.94 1070.91 1251.05 1066.32 1249.35 1061.72H1249.67C1264.52 1059.98 1279.26 1057.53 1293.9 1054.38C1296.94 1053.69 1295.69 1049.18 1292.75 1049.83Z" fill="#202122"/>
<path d="M1254.36 1082.67C1250.57 1088.97 1245.69 1094.55 1239.96 1099.16C1237.61 1101.04 1240.92 1104.35 1243.27 1102.47C1249.3 1097.59 1254.42 1091.7 1258.41 1085.06C1258.73 1084.52 1258.82 1083.88 1258.66 1083.28C1258.51 1082.68 1258.12 1082.16 1257.58 1081.84C1257.05 1081.53 1256.4 1081.44 1255.8 1081.59C1255.2 1081.75 1254.68 1082.13 1254.36 1082.67Z" fill="#202122"/>
<path d="M1225.27 1067.51C1225.27 1067.51 1262.46 1037.75 1287.13 1034.21C1311.8 1030.67 1324.69 1057.45 1322.94 1075.32C1321.19 1093.19 1262.09 1102.88 1262.09 1102.88" fill="#C8CCD1"/>
<path d="M1245.11 1077.43C1249.71 1072.84 1313.04 1043.58 1335.27 1056.99C1357.5 1070.41 1356.12 1080.37 1353.32 1096.73C1350.51 1113.08 1329.01 1201.18 1329.01 1201.18C1312.84 1207.41 1295.08 1208.25 1278.39 1203.57L1284.6 1138.11L1200.51 1092.18" fill="white"/>
<path d="M1199.09 972.2C1202.45 974.681 1231.3 978.126 1237.24 991.354C1243.18 1004.58 1252.43 1072.98 1252.43 1072.98C1252.43 1072.98 1235.12 1098.7 1205.16 1089.56C1196.28 1086.85 1150.21 1002.79 1148.96 994.064C1145.79 971.327 1199.09 972.2 1199.09 972.2Z" fill="#92BFB1"/>
<path d="M1142.29 1119.88C1140.83 1116.42 1139.63 1112.86 1138.7 1109.22C1131.66 1081.66 1127.01 977.804 1173.73 982.03C1225 986.623 1207.69 1114.82 1259.65 1110.87C1311.62 1106.92 1332.93 1120.43 1311.66 1140.55C1269.23 1180.74 1168.34 1181.84 1142.29 1119.88Z" fill="#A2A9B1"/>
<path d="M1217.49 936.464C1217.82 938.577 1221.55 968.296 1212.89 975.002C1204.24 981.709 1184.26 965.816 1183.8 958.053C1183.34 950.29 1176.62 933.846 1185.05 929.758C1193.47 925.67 1215.15 921.766 1217.49 936.464Z" fill="#EDB98A"/>
<path d="M1225.27 1049.55C1227.66 1053.8 1231.27 1057.23 1235.64 1059.4C1240.01 1061.57 1244.93 1062.38 1249.76 1061.72C1266.74 1059.38 1291.64 1017.72 1291.64 1017.72C1291.64 1017.72 1286.26 985.98 1271.3 983.27C1271.3 983.27 1252.15 1007.66 1248.98 1008.53C1245.8 1009.41 1237.29 991.4 1237.29 991.4" fill="#92BFB1"/>
<path d="M1215.61 985.705C1211.84 983.132 1206.4 981.111 1207.74 975.875C1208.75 971.281 1213.26 968.25 1213.4 963.565C1213.45 961.31 1213.04 959.07 1212.21 956.972C1211.38 954.875 1210.14 952.963 1208.57 951.346C1206.59 949.325 1203.97 948.177 1205.48 944.962C1206.62 942.878 1208.33 941.158 1210.41 940.001L1220.07 940.598C1221.88 935.552 1221.76 930.019 1219.74 925.055C1217.72 920.091 1213.94 916.043 1209.12 913.681C1202.87 910.413 1195.78 909.103 1188.78 909.922C1181.77 910.742 1175.18 913.653 1169.86 918.274C1167.33 921.064 1165.16 924.149 1163.37 927.461C1161.3 931.616 1158.44 935.329 1154.95 938.393C1153.03 939.529 1151.39 941.08 1150.14 942.932C1148.9 944.784 1148.09 946.89 1147.77 949.096C1147.48 953.387 1148.63 957.652 1151.04 961.222C1153.48 965.815 1149.56 969.031 1146.43 972.338C1142.95 975.418 1140.68 979.636 1140.04 984.235C1139.58 994.202 1149.24 998.795 1157.57 1000.31C1165.9 1001.83 1173.17 1002.93 1181 1004.26C1190.94 1005.96 1200.65 1009.54 1210.82 1006.79C1213.49 1006.04 1215.93 1004.63 1217.91 1002.7C1218.97 1001.63 1219.8 1000.35 1220.34 998.936C1220.88 997.526 1221.11 996.02 1221.03 994.514C1220.95 993.008 1220.55 991.536 1219.86 990.192C1219.17 988.849 1218.21 987.665 1217.04 986.715C1216.58 986.352 1216.1 986.014 1215.61 985.705Z" fill="#54595D"/>
<path d="M1061.42 898.523L1061.84 898.293C1062.21 898.076 1062.54 897.788 1062.8 897.446C1063.06 897.103 1063.25 896.713 1063.36 896.297C1063.46 895.881 1063.49 895.448 1063.43 895.022C1063.37 894.596 1063.23 894.186 1063.01 893.815C1062.8 893.444 1062.51 893.119 1062.16 892.86C1061.82 892.6 1061.43 892.41 1061.01 892.302C1060.6 892.193 1060.16 892.167 1059.73 892.226C1059.31 892.284 1058.9 892.426 1058.53 892.644L1057.74 893.103C1057.75 892.529 1057.6 891.964 1057.32 891.464C1057.04 890.963 1056.63 890.544 1056.14 890.247C1055.65 889.951 1055.09 889.787 1054.51 889.772C1053.94 889.758 1053.37 889.892 1052.86 890.163C1049.09 892.001 1045.36 893.884 1041.68 895.859L1043.11 894.113C1045.27 891.403 1042.55 886.856 1039.15 888.969C1034.67 891.756 1030.27 894.665 1025.94 897.696C1025.56 897.968 1025.23 898.315 1024.99 898.716C1024.75 899.117 1024.59 899.564 1024.52 900.028C1024.46 900.493 1024.49 900.965 1024.61 901.417C1024.74 901.869 1024.96 902.291 1025.25 902.657L1024.56 903.162C1023.86 903.678 1023.38 904.43 1023.2 905.276C1023.02 906.122 1023.16 907.004 1023.59 907.756C1023.43 908.248 1023.38 908.768 1023.43 909.283C1023.49 909.797 1023.65 910.294 1023.91 910.741C1021.89 912.257 1023.04 915.335 1025.25 916.07L1025.53 916.391L1021.66 917.723C1017.7 919.101 1019.4 925.394 1023.41 924.016L1043.24 917.08C1048.42 915.799 1053.18 913.204 1057.05 909.547C1057.5 909.078 1057.79 908.483 1057.89 907.842C1057.99 907.202 1057.89 906.546 1057.6 905.964C1059.04 905.22 1060.38 904.311 1061.61 903.254C1061.97 902.967 1062.26 902.599 1062.45 902.18C1062.64 901.761 1062.73 901.303 1062.72 900.842C1062.7 900.382 1062.57 899.932 1062.35 899.529C1062.12 899.126 1061.81 898.782 1061.42 898.523Z" fill="#614335"/>
<path d="M980.329 910.833C980.329 910.833 1016 896.364 1026.63 893.241C1026.63 893.241 1037.63 900.958 1034.59 921.214C1034.59 921.214 1002.37 954.011 982.492 963.886" fill="#CA054D"/>
<path d="M952.575 839.682C953.045 839.048 953.279 838.27 953.237 837.482C953.195 836.694 952.88 835.946 952.345 835.365C950.947 833.352 949.02 831.762 946.776 830.771C946.126 830.57 945.442 830.504 944.766 830.578C944.09 830.652 943.436 830.863 942.845 831.199C942.254 831.534 941.738 831.988 941.33 832.531C940.921 833.073 940.629 833.694 940.471 834.354C940.309 835.656 940.458 836.978 940.906 838.212C941.354 839.446 942.089 840.556 943.05 841.452C944.01 842.348 945.17 843.005 946.434 843.368C947.697 843.731 949.029 843.79 950.32 843.541C951.143 843.294 951.84 842.743 952.268 842C952.696 841.257 952.822 840.378 952.621 839.544L952.575 839.682Z" fill="#CA054D"/>
<path d="M957.73 1136.73C983.937 1136.73 1005.18 1128.86 1005.18 1119.14C1005.18 1109.42 983.937 1101.55 957.73 1101.55C931.524 1101.55 910.279 1109.42 910.279 1119.14C910.279 1128.86 931.524 1136.73 957.73 1136.73Z" fill="black"/>
<path d="M949.769 1040.46L951.61 1111.24H965.74V1040.46" fill="black"/>
<path d="M892.836 1000.59C891.375 997.129 890.175 993.567 889.246 989.931C882.204 962.371 877.555 858.515 924.271 862.741C975.543 867.334 958.237 995.534 1010.2 991.584C1062.16 987.634 1083.47 1001.14 1062.21 1021.26C1020 1061.45 918.748 1062.41 892.836 1000.59Z" fill="#A2A9B1"/>
<path d="M960.17 802.338C960.17 802.338 977.246 838.258 966.016 848.823C958.053 856.31 942.313 855.805 934.12 842.071C925.928 828.337 944.568 796 960.17 802.338Z" fill="#614335"/>
<path d="M943.371 836.697C952.492 828.401 958.391 817.163 960.032 804.957C961.873 785.757 919.392 792.555 912.443 811.158C905.493 829.761 915.756 856.77 944.338 852.957L943.371 836.697Z" fill="black"/>
<path d="M923.627 838.947C920.682 841.428 846.214 917.356 884.829 942.803C917.046 964.024 929.381 852.819 929.335 844.321" fill="black"/>
<path d="M1907.69 978.814C1907.43 977.765 1906.96 976.779 1906.31 975.921C1905.09 974.455 1903.65 973.198 1902.03 972.2C1880.35 957.547 1850.34 953.505 1827.37 967.607C1822.13 970.868 1814.35 978.309 1817.43 985.291C1819.23 989.333 1824.66 991.722 1828.43 993.375C1841.04 998.357 1854.21 1001.78 1867.64 1003.57C1872.52 1004.4 1877.4 1005.18 1882.33 1005.69C1885.71 1006 1889.12 1005.47 1892.24 1004.13C1895.36 1002.79 1898.09 1000.69 1900.18 998.015C1903.68 993.926 1909.25 985.153 1907.69 978.814Z" fill="#72777D"/>
<path d="M1816.93 982.306C1832.27 994.125 1851.59 999.587 1870.87 997.556C1905.02 994.938 1907.69 978.815 1907.69 978.815C1907.69 978.815 1898.85 1091.86 1894.16 1093.65C1889.46 1095.44 1872.02 1103.98 1863.59 1104.63C1855.17 1105.27 1828.52 1094.61 1827.88 1091.67C1827.23 1088.73 1816.93 982.306 1816.93 982.306Z" fill="#92BFB1"/>
<path d="M1875.65 950.841C1875.09 952.056 1874.77 953.364 1874.69 954.699L1875.65 950.841Z" fill="#CA054D"/>
<path d="M1823.14 817.588C1822.08 815.43 1818.86 817.313 1819.92 819.472C1843.3 867.151 1847.85 920.801 1852.13 972.889C1852.13 975.278 1856.05 975.278 1855.86 972.889C1851.58 920.02 1846.84 865.91 1823.14 817.588Z" fill="black"/>
<path d="M1820.19 818.048C1820.19 818.048 1826.73 842.76 1820.19 855.162C1813.66 867.564 1807.86 869.998 1815.91 885.432C1823.97 900.866 1845.51 902.841 1846.93 914.646C1848.36 926.451 1836.39 839.039 1820.19 818.048Z" fill="#F4AC45"/>
<path d="M1894.98 862.695C1877.01 900.841 1866.92 942.206 1865.3 984.326C1865.3 987.266 1869.9 987.266 1869.9 984.326C1871.5 942.967 1881.42 902.352 1899.08 864.9C1900.14 862.373 1896.23 860.077 1894.98 862.695Z" fill="black"/>
<path d="M1898.16 874.775C1898.16 872.295 1897.61 867.426 1897.88 863.062L1895.26 864.716C1886.38 886.534 1873.12 937.842 1869.12 953.551C1874.5 941.792 1896.73 940.185 1903.13 923.281C1905.99 916.153 1906.12 908.222 1903.5 901.003C1900.31 892.606 1898.51 883.748 1898.16 874.775Z" fill="#F4AC45"/>
<path d="M1239.45 387.883C1236.78 400.469 1239.04 417.877 1252.52 420.036C1269.92 422.608 1274.24 410.849 1273.32 396.289C1272.59 384.759 1266.56 366.708 1250.96 371.944C1247.12 373.409 1243.99 376.285 1242.21 379.982C1240.95 382.485 1240.02 385.141 1239.45 387.883Z" fill="#D08B5B"/>
<path d="M1238.44 390.685C1234.94 388.881 1232.05 386.09 1230.14 382.658C1228.22 379.227 1227.36 375.309 1227.67 371.393C1228.4 363.676 1235.91 353.8 1244.6 357.613C1250.5 360.093 1248.88 360.277 1248.88 360.277C1250.26 358.645 1252.05 357.405 1254.06 356.679C1256.07 355.953 1258.24 355.768 1260.35 356.143C1268.58 356.878 1270.01 361.884 1270.01 361.884C1270.01 361.884 1279.22 365.008 1281.84 371.071C1284.65 377.869 1278.25 398.126 1275.21 403.822C1272.17 409.517 1270.38 397.942 1269.32 393.303C1268.96 391.435 1268.14 389.686 1266.93 388.211C1265.73 386.736 1264.18 385.582 1262.42 384.851C1257.35 383.473 1254.82 387.974 1250.82 389.858C1248.95 390.904 1246.86 391.522 1244.72 391.665C1242.58 391.808 1240.43 391.473 1238.44 390.685Z" fill="black"/>
</svg>
